<mxfile host="Electron" modified="2023-05-18T08:35:38.318Z" agent="Mozilla/5.0 (X11; Linux x86_64) AppleWebKit/537.36 (KHTML, like Gecko) draw.io/21.2.8 Chrome/112.0.5615.165 Electron/24.2.0 Safari/537.36" etag="EaX-kqzeM5yPZVUUUA71" version="21.2.8" type="device">
  <diagram name="Page-1" id="6Zm0YtAv02JZmRn65AFE">
    <mxGraphModel dx="2689" dy="581" grid="1" gridSize="10" guides="1" tooltips="1" connect="1" arrows="1" fold="1" page="1" pageScale="1" pageWidth="850" pageHeight="1100" math="0" shadow="0">
      <root>
        <mxCell id="0" />
        <mxCell id="1" parent="0" />
        <mxCell id="BpbORTAEeLpkDUlTC-BJ-3" value="" style="shape=image;verticalLabelPosition=bottom;labelBackgroundColor=default;verticalAlign=top;aspect=fixed;imageAspect=0;image=data:image/png,iVBORw0KGgoAAAANSUhEUgAAAycAAAHhCAYAAAB0h8EpAAAABHNCSVQICAgIfAhkiAAAABl0RVh0U29mdHdhcmUAZ25vbWUtc2NyZWVuc2hvdO8Dvz4AAAAudEVYdENyZWF0aW9uIFRpbWUAVGh1IDE4IE1heSAyMDIzIDEwOjExOjM4IEFNIENFU1Q30tY0AAAgAElEQVR4nOzd23Mb+YIf9m83gAa6wfv9ToAgqTtJidKM5mzilGM7uxvbm6rETiqJY6+ftvyQp/wrqTz4IVV5SFx5cbIVO5WHbHYffM5658wcSeeM5lCjkUjxJlKkqAtF3BudBwgSBDaAbqAb/evu70elItAAGj80QfTvi99N+pd//thAUEheF+Cz1kURqKBuufQS7b1mp45QQpGxmdEwqEUc2mOVJPXud9jL56q3d1rCD7s5GO0+IYL4dnbwU9EwueTCzju+U1elMppe6Zq9vRmmF/3FvOA9fTk9ejJJAq7OJpCaUHrzhNSVvdMSHu9ZOBcQOUT2ugCOEugPx0Cr4rS+NRAuvUR7r9mpI5QvVvBwO4cPed2BvX1mGAaMHn1S156rV89pANg6yON3VoJJ7QHt/ovExfJ+uZvqP8cPgqVdtr5T16X64sHO/5I7/qQQ7b1mWXiCCQAYRvUz5tlxsXdPSh3ZPi4ymFDPBSucAMJVhlz8ztIfLr1E+9+HdnuULvI6Hm7nkCtWutzTZb0MDb14zkoFePA8i+dHRWdPRlYCQa/+u/KSGoOIw78bBwIJ2t5qoyzmV7pm/yuMjh4omHAFk09PaQBPD/P46bDQ+ycnS346LODJYZ7BhHoueOGkRqA/pvYBRaDCuuHSS7T/mrs9Su+zOh7t5FAqu3esex1S6p/Tiec+z+n45ZMPePmm9Kmi/fmfuA0hbrucb3p0RCzvvv2dui7lpbKwtcQZ4Qwmn57aAJ4fF7B1kPeuEHSJAeDH/TyeHxcYTMgTwQ0ngFAnLWvVh4DzOKScnZfxcCeLSsXdY+1Fa4rZc1t9fgPA8dsSfrV1gffZZt3fzKrn5tV0v72TzRtYPHp1tgNJ+1YSR0JJ8w1dC2drCRD2YPKpCEat6xADiggMAL/byeHFicOt50Q2RL0ugOtqf1yCDNo10KooghXWLZdepv3X3emROnlXxsOdHDbSKuQeDDSvDwheDGw3Cyj15TAMA9uvitjaz3dRT7n8SJNntbSnbo5QRxVcr9kqSvs7O/bKLgUS59n/WqLjBwtGgFDiyRO2tntShF4xsLaoel2U0NIrwMOdLF69Kwv3/qBwCX44qWmdCnqqfcVaoMK66dLL7E1IOXpTwu9kCWuLiZ4GBq+Dilk5Hu/lsXtS7MF5yHorTqDZfoE9Pm49CCX29xyULlwAg0lrh2clVCrARpoBpdfyJQOPtrM4++Ds5DFEnQhPOAGEa5hgKwqavEz3Q8rB6yKiMnB9vrcBpcbroFIsG3i4ncPpebnnzx0qLoWRjnZteWcChhL7DxYQg0k7hgG8fFOCbhjYXNK8Lk5ofMhX8Ggn16JbL1FvBXvMSTMCfThzLMpHpgfC3TEpL06KeHJQ8GRsSL1ej1F5e6HjV1sXOH1f9vdgEdF0NDzF3gMc/VVd2pl7bwL740qCNLYEYDCx59XbMr59moXLwwMJ1fPB98+yDCYklHCGE0C4D+n2AUWwArulxyHl+XEBP78seDaAvZHbQeXgrIS/fnKBbKHJtModVbBDqOPjZP9Bjv8qLu1MlFBSe0Tzq/7EYNKJ1+dlfPv0AiXdZwX3kZP3ZXz3c7b5+YDII+ENJ4BwlS+2otTpYUh5elTA9qvqYmCihBTA2aBiAHj6soBHOzn7+zOriAv2t+MKR153d2HE8UByqZVEpFASxNaSyy/Ck5fm02P55oOOb59mUSj59AUI7OWbEr5/lmX4IyGFO5zUCPa3yVaUOr0IKQawtZ/H7mnp8yaBQgqAjqYI/vxY4Lc7OTw9zOPz3JAOpY1WFXiRQ4wrZe5sJ64eqh62knS29yCGEkCY1hLPntQ577M6vn16gawLi+iG1e5p8eMXVV6XhMhcuAbEt2JAqLHntc+M0M/oVWN6QNofpWa7MXvU470cojIwMxL7fH9BZthq1BhQmpUtW6jg4XYWby+s9ic2O1s58LoDdxLs7gW5ejhMw7y7OnsGw/Si/wkSTAJ0TD/kK/j2aRabGQ39CX6n2o3nx0X8xFXfSXD8K68n4Ld2bEVp4FBLiumjDODRixyO35rPYCVaa0q9xpYVwzBw8r6MX219wJsLvctv5v3UJOIkZ153T47apZ335nfkyF9eoN5GDCZuyRUq+PXTC7zjwO2O/XRYYDAhX2A4MSPYH277CkAYKooN3AopRnURqtP3zafY9XIFeKt2T0v49dMLFMqXy+hsZdlK/yjRjpN7Ze7pKzd9kt4cb8dCiWhvjY41fzEMJs4plAx8+5RrcXTi8V4ez44LDCbkCwwnzQh44mxfHMEK3AsuhJTqKrk5vLHQFUrEoLJ1kMfj3ZytI+B+pLAaCHrx371X5LqWgYShxBvNQwmDifPKuoFfP71o+QUSfWYAeLSTw+5pMRTvDwoGhpN2BPtjbn/CC9yZ3xoHQwrweZHC9znr39B5HVL0CvD9syyeHzu34rtf2kLcIsTr9ziQ1D9bV48K5BtHkNYSz57UGxUD+O5ZtmkXXKoq6wZ+8yyLwzelUL0/yP8YTqwQ8KRqLaSEUMuKnD25YgWPtnO254D3ojXlPKfjV1sfcPyudyfr3rVRuEPY8psWwpuSMZQ00/xFMZj0hmEAv9n+WPGmS3JFA989y+LVu3Io3x/kb5ytyw4Dwk2Q1bpItU8kwQrdK5defv0ntLVjcp6v4OF2DpsZDfGY/ePYi9m+jt6W8Gg7B70C4X7VPCdaZHqgvDl6nT+r0fJqcAgUSjx9YgEY1S5LlQowNxprf/+QOM9X8Gg7i/Mcp18mf2LLiV0CfgvIrl5tdNnl621Wx8PtLMqV7o6h0y0qhlFd4f7B8xz0WtmE+fqfWhKodaTx2bt+ZKDfdwIFk0AfZxsM4He7Obw4KXpdEiG8+aDj+58ZTMjfGE46JeBJoX2RBCx0L3URUl5/0PFw27lFq7oNKoZRXZdl6yBft48mlVuGFW81DYxi/GIYSqxgNy6hGcCP+3lsH4c7oJy8K+O7Z1nkuGAl+RzDSTcEPBmzFcUC0/pg+0riybsyHrqwqq7d1d8LpQq+fXqB3ZN2s680qRWbbQ75W8IxLY+rOAe8u1KEKZQArUIJg4lADGDrMI+fjwpel8QTh2clfP88i7LONwj5H8ecOMGAsH39OR6lDdPDYH5sDABHb0r4QQZuLqquHblW41TOPpTxaDvXxTdjZicuqflNdTdTnbbnf/EqCN2XyGh5NXiav0DPXnrgj3mXDODpYQF6BbgyE/e6ND2ze1LEj/tcXJGCg+HEKYLW9dvnJkEL3mv1H+otBtAbAPZflxCRJVybS8ClMe6fi1V3tjk4K+F3L5xvuWkZWJrdbHK3wLF8nMWuEXRXOpNHi/1yHcJg4mfPjwuoVAxcm0t4XRTXPTsu4qfDPN8fFCgMJ07zZStK7V6CFdwrLVtTAAMSXpwUEZGB1dlET47a05cF/Pyyl90VLCYSqydE0d5atk/k/jrzO95K4sxOfUKgsSWePrGPGcDOqyL0CnBzIbgB5clhAc+PC3yPUOAwnLhB0MYIdvWyybQ1pXqDAeD5cRGRiITlKfe6DxioTpX58kykufytnAkb3kPCnzyFL2BbDCTdYmtJ0OydFqFXDKynVK+L4rjHe3mu+k6BxXDiJkEbIxhSOmBySAwYeHpYQFSWsDiuON7FK1uo4OFODu8urK9SLw4nzphWD2h4z87OvPKwhxJAuNYSz588OA7PSqgYwO10cALKw50cXnLVdwowhhO3CVzP53iUDjS0phgw8Pv9PGQZWBhTHHuak/fVge9F3Qjx0eeZt5FzR6TJnkJ3yAVsLfH8yYPn6E0J31UMbGY0X3+elnQDj3ZyOHlX9rooRK7iVMK9IujJxtp0mIIW3msfD55hGHi8m8ehQ12vXpwU8d3PWRQ/TgkpzgS05AVnf/cmewrtm0uwKYI9f/JgO3lXxrdPs9B9ugRIrljB98+yDCYUCgwnvSTwiad90QQuvAAMo/qN1vHbzgOKAeD3+3n8uJdveaQZVoLN+d+vyd5C/QZq/sLZWhJsZ+dlfPv0AsWyvw72ea6C755l8eaDH7v4EtnHcOIFgSsFDCmdqwWU03P732yVdQPfP8ti51XR9tFlWPE3d35/TfYY6jdJ61DCYBIOby90fPs0i1zRHwf97IOO755l8SHn0yYfog4wnHhJ4M9GhpTOlHUDD7dzeGtjEPu7rI5fPbnAq3dlR44ow4rY3Pv9tAkkoX4zCDq2RIgChM95Tsevf77ARUHsCv+rd2V8/yyLfMeL7hL5E8OJ1wSvNFgbjyLwC/BAsVTBw+0sznOtA4oB4OWbEv76yQU+5HW4dSwbK8P8jfWO+8edgaQ1wVtLQv/78c5FvoJvn2bxXtAWiYOzEr5/nkVZ55uEwofhRBQCf/5YO4fyTFsvW6jg4XYO2SbfzBkAnh8V8HA7h0ql8bj1JkYwsDindwGwxTPwF9mArSXUWr5Ywa+fXthq6e6FFydF/PZFju8TCi2GE5EIXrFgSLHnPKfj4U4WhdKXAcUwgB9e5PDkMA/D+HisWlYsexchmlWy+Rut8ubYtHgm/oJMCNxaUisECaNYNvDt0yxen4sRUJ4dFfDjfp7vEwo1hhMRCXEGbY4hxbq3H3Q83M59aprPFyv4m6cX2Gu1sm/bmq83saFVcAnKb1uM12exdSQIB9xRrQ+K54eLvzNh6RUD3/5cHffnpa2DPH56WeD7hEKP4URkgn9AMaRY8/q8jIc7Obw+L+NXTy5wZnc2L0HDipWSeBloRCpLa21K4X0BfaB1KPH80HleAGrLAL5/lsXRW28Cyg+7eWy/avGlFVGIMJyITogza2sMKe0pUQmFUuVSF6+O2A4rYh/3TkKEuEGjHQsl9ccLEUTzgyTE4ROiEGTHg+0sDhxaUNcKwwAebOdat6YThUzU6wKQRbUPLcnTUrRkrYg+eCEOkiRgZSaBzKQCAChXquNNHNV4QjM9tM3OeuH4PXjDYk2DFZIOtD5oQhxSIQpBthnAb1/kUKkA82MxV5+qVDbwcCeH0/dc9Z2oHsOJ3/igbs+QUiVJwEZaw9TQ5z+z+dEYdN3A1kEehluVF7P9Nj3MDC3ds/GLZIW1Sz4IJYBABaGOGMAPuznoFQOpCcWVp8gWKni0Y29NLKKwYDjxKwPC1x/DHFL6EjLW0xoG1Ms9J1MTCvQK8NNhvncFsp1BWtWugvW7sqaD2iYrqA5iKKHe+/1+HrqBTy3fTnmf0/FoO4cPeTHXWCHyGsOJn/mkXh+2kDIxGMV6SkU00vy1ZKYU6BUDz44KPSyZiY4aTqzUwPz0e+yyRskKqYt8EkoAwQpDTvnpII9KxcDKdNyR/b0+1/FoJ4tCiW8YomYYToLAJ/V6eyGl/T1FlJpQcG0uYem+qzNxlCsGXrwqulyqDnTdcBKwE2/AXo4/+CSYCFMQcsvPLwvQK8DV2e4CyvHbMh7tVLuLEVFzDCdBEqiQYu+eIrg+n8DiuL3m/+tzCeg6sP9awIDSjNXzqj9+baxcCscnoQQQrDDkpu3jAvSKgRvz1r58anTwuoTf7nLVdyIrGE6CyAfjUYDghJRYVMJ6SsX4QGd/TrcWE9ArBl6+6d30lT3BkzDZwlBCYts9KaJSMXBrUbX1uBcnRa76TmQDw0lQiV2f/4L1jlzivajBZAQbKRVavLslgzbSKvSK4fkKxUS956NQAghYIOql/dcl6AawkbIWUH4+KuApV30nsoWLMAadzxYBs1ZcMVaomx6J4RdXkl0Hk5qNtIaRfn5fQGHR+m/Y+7/wBsIViLzy8qyE759n295v6yDPYELUAYaTsPDZidV6cb15YctTccvfnFkVkavfxg0mI47ul0gc7b9YEPKjSrgCkddevS3j1z9nm65X9bvdPLaPueo7UScYTsJGyDN/c/ZDivsvbm1RxcqMM9NKNorHJGykVPQl+KdJQdL+b1PIjyYhC0WiOH1fxrdPL1DWP79JKgbwYDuH/VMfTXJCJBjWgMLKZydde9HDnRenKhLuryYxOxpzfN/1tLiMjbQGVeGfJ/mdT0MJIGihSDRnH3T8zdPquiXFsoHvn2VxFLTJTYh6jB3cw068MeZt2Z/ly9q9Wxntj2A9pSEe682B6ldlbKRVfPcsi1KZtSTyG2sjx4QkbMFIVO+zOh7t5CDL1dYUIuoOv5qlKmG/vmyuV60p82MxfLWS7FkwqRn6OBOYzL9S8gVrf5HCftQIWzAS3WAygpsLCdyYT6BP5Qc2Ubf4V0Rf8ukJ2q2xKVdm47i54OzAdzvGBqLYSGmePT9Re/bm2BOSsAUj0Y32R3E3o0GLy1AVGV+tJDmpCVGXGE7InNA1ieY6a025fG9ZAm4vqViadGfgux2TQ1GsOzwzGFH3rLeSCPtRInThSHRTwzHcXdagRD+3qsejEr5a1jDcx4BC1CmGE2rNxydve0X/XI3qS8j45moSU0PuDny3Y2YkhpsLCa+LQaHn865bNcIXkEQ3NxrD7bQK2aS3bzQi4euVJMYGOKyXqBMMJ2SNj0/mdr69nRiM4RdXkxhQxfvWa35MwdU5BhTyQgC6bgE+KCD5QWpCwa3F1q3ZkgTcW9YwOcSAQmQXwwnZ4/OTe/OgIiE1EcedjIaI2VdhgkhPKFiZ9r6rGYWBvVYS4T8WhC8g+cHKTBzXbHxJdGdJw8yIOK3wRH7ASE+d8eEUxI3qX8KN+QTmxxVfvJzl6TjKFaO6+jCRo+x1hPQF3xSURHdtLoHUhGL7ceupavev/ddc/4TICoYT6o7PQ0o8KmM9pfqub/DV2QT0CrB7woBC3QpgIAF8VlgS3VpKxWwXLSC3FlVEZAkv+JlN1Ja/amQkLh+GlOFkdRYsLe7P3o035hPQdQMHZ/w2juyyV3P3VT3fV4Ul0UVkCesp1ZGxI9fnE5BlsNWbqA2GE3KWT0LK7IiCtUUVkuDlbGctpUKvGDh6y1WJqZ0ABxLAhwUm0cVjEtZTGkb7nZsg5epsAhFZws8vC47tkyho/PmVMYlP0BGyEoCV6UQggknNRlrzXbc06hWnVv4RmO8KTH6QTMi4m3E2mNSsTMdxZZYzLxI1w3BC7hKotiMBWFtUsTIdD0wwAapTVt5Oq1z0i/DlH1yAA0mNLwtNohtKRnA3o2FAc+8zdWlSsTXrF1GYMJxQ73hYA9IUGd9cSWJ21P5MK34QjUjYSKsY0PgnHT7244WvAwng88KTyMYGorib0XoyFjE1oeDmQuv1UojCiDUZ6r0eVyzG+6P4xZUkhpLB7vqUiMnYSGlI+nSAP1llv3Wk8VG+5fsXQCKbGo7hbkZDLNq7pvX5sRjWUgwoRPVYiyHvuFxbkgAsjim4u5yEEgvHWz2ZkLGRVhGPBajfWuh1FkYaH+lbgXgRJLr5MQW3096MRZwdieH2ktb7JyYSVDhqbCQ+FyofV2cTuLEQnIHvVg1oEWykVUQ5BMWnnAkjvq/LB+JFkB+kJxXcXPB2/MfUULU7megzXRL1AsMJicWBmlVUlrC5pCE9GXeqVL4z0hfFRloLXTDzn8Y4EeIwUhOoF0OiW52J46ogM2eND0bx1XISEZkf3BRuDCckrg4qKQNqBN9cSWJyqPOVfINifCCKjZQK1vRE0V0QMdtLoATyRZHIrs8nkJkS60us0f4IvlrRoPRw3AuRaBhOSHwWa2NTQzF8cyWJfpX9mWqmhmNYW9RgXjFmbdAdzh3nUPy2AvvCSGRrKRWL42LO3jiUjOCrlSQSCqtoFE5855O/NKnILE3GcTutQpYAw2BNp97saAzX51vNBsPgYk+r49XdMQvV0Q/FiyTRRGQJmxkNsyNit673qzK+WtGQTLCaRuHDdz35U10N7taCiiszXzbNG4bx6T8Bi+NKhysSt6uIB+349u71Bv1ImgrViyXRJBQZd5c1TAz6Y1r5ZFzGV8tJVxeDJBIRwwn5VkKR8fVqEnOjrb8BY1CpWpqMY3najYGfVir0vQw3IpWleYlCJZQvmkTSp8q4m9Ew0uevin5CkXBvWcNQ0l/lJuoGwwn50kh/FN+sJm2faMIeVFam40hPxAWrKHcbbsR4NeKVyGOhPwAkiqFkBHczGvpVf1Z5lKiEr1aSGO33R4sPUbf8+ZdKoTY3quDrFQ0JpbvZTMIaVK7OJbAw9uVAUFasreFxsoAHhAQyPhjF3WUNqs8Hl0dk4N6Kf7qkEXXD33+tFDqrMwncWnS+a1LYgsrNBRWzI9ZmqhG/zaJ7QX99ruNBIgFNj8SwmdEQiwRjWl4JwGZGw9Sw2IP5ibrFCE6+IEnAekrD9LD7b9n6gCIFeBXD9ZQKvWLg6G3JsX2ybhoy/IWToBbGFNzweNV3t9xOq/itBBycOffZTSQStpyQ8JIJGd9cSfYkmDSqb1EJYqvKRkrFGPsxkx1sJSHBLU3GAxtMatZSKubHxFynhahbDCcktPHBKH5xJYlBQaZSDFpQkWUJG2kNw0kGFGqBgYR8YnUmjiuzYq367pabCwmkJhhQKHgYTkhYixMK7mY0RAXtLxyUoKJEJWykVQyoYgRAEgQDCfnMjfkEMlPhCCY11+YSWArZa6bgYzghIV2fT+D6nH+a5f3e/UtVZGykVSTj/EgINQYS8qn1lIqF8XC2IlyZiWNlhgGFgoM1ERJKLCrh7rKGRZ+fZPwYVvoSEWykNCSi/FgIFQYS8rFoRMJmRsPMSLhnsFqeiuPqrH++0CNqhbUQEsagFsE3V5IYHwje+Ae/hJXBZATraRVRWcyudOQQBhIKgIRSXfWda39UpScVXJ9nQCH/YzghIUwPx/DN1WRouhWJHFZG+6PYSKtgPAkQLthCAdOvVld9H+7jWLl6i+MKbi2qXheDqCvhqAmS0DJT8dBXhhvDiteBZWIwho205mkZqEsMIxRQw30RbGY09KuswpiZG41hI82AQv7FtlDy1K1FFXOj4e4r3IxZQOnlopDTwzHouorf7uZ69pzUBYYQCoGJwSjWU6qwsziKYno4BlmS8JvnWa+LQmQbv3YgT6iKjPurSQYTm3rdwjI3pvhq1rRQYVctCpmZkRg2BZ5eXjSTQ1HcW9Ygs6ZHPsO3LPXcaH8U31xJsq+wQ8wCi5OhJTURx5UZBhRPNQYRhhEKmYVxBespdlWya2wginvLSQY68hWGE+qp+TEFX61oiMf4Qek2J0NLZiqOZS701TsMIkSfZKbiuMFZqDo20hfheZd8heGEeubKbAI3F3iC8Vqz0NIuuKzOJJCeYEBxHFtFiJq6MpvAKhcY7NqgFsG9lSS0kMyISf7Gdym5TpaB20salib9vbBiGLQKLoZh4OpsHPOj/D12xCyEMIgQNXVjIcHzhoP6EzLuLWvo4yxnJDi+Q8lVfaqMb670YWqIE8MFxc2FBGaGOZFBUwwhRF2RJGAjrWJhjMHEaVpcxlfLSQxqHPNJ4mI4IddMDEXxzZU+DPBbmsBZT6mYHAxpQGkWPhhCiLoWi0rYzGiY5hcgronHJNxb4QKWJC7WGskV6QkFm0saonyHBdZGWsVYf4BaxNqFDoYPIlepcRmbGQ3jAwH6XBFULCLhq5UkxnisSUCsOpLjbswncJVrYwSeLFVbUIaTEesVezcq/l4+NxE5YkCL4G5Gq36eUE/IEnBvWcMku12TYBhOyDFKVMK9ZQ0L4+wnHBZKVMJ6SkO/6lCFgqGCKHRG+iLYzGjoS7BK4oU7SxqmR9iNjsTBTwJyxFAygm+usIk4jFRFwkZa5RSVRGTbxGAUm8saElyDw1MbKRVzowwoJAbWJqhrMyMxfHOF86eHWV9Cxnpa5SJfRGTZ7EgMmxkNUZmfGyK4taiy5wMJgbVJ6srydBzrKdXrYpAAhrQI1lMaohFWNIiotcVxBWs8dwjnxnwCaa4tQx5jOKGOraVUrExz5V76bLQ/gvWUCon5hIiayEzFcX2ek6aI6upsAss8t5OHGE7INi0u4/6VJGY5gI5MTAxG2ZpGRKauziawOsOKr+hWpuP8PZFnOHqZbBkbiGItpSIe5Vfj1Nz0cAx6Bfjdi5zXRSEiQdxcUDE/xi+1/CIzFUdElvD7/bzXRaGQYTghyxbGFdxgUzxZNDcaQ7li4Pd7PLERhZn0cU0krvruP6kJBbIMPN7l5zj1DsMJWXJ1LoH0BAfJkT2pcQW6Dvx0yBMbURgpUQlrKZWrvvvYwpiCiCzhtztsCafe4KcFtRSJSFhfVLmCLHUsM6VArxh4dlTwuihE1ENaXMZ6SsUQV333vdmRGGQJeLjNgELuY42TmupXqzMv9aucN4G6szoTh14xsPOq6HVRiKgHBrTq+YOrvgfH9HAMEVnC98+zgOF1aSjI+KlBpqaGqgsrMpiQU67NJTA/xq6BREE32h/F3YzGYBJAE4NRfLWsIcKFM8lF/OSgS5Ym47i9pCLCdwc57OZCAtOcgpoosCaHotjMaIjHWHkNqtH+KO6taFA4aye5hNVP+sLNBRVXZjm3OblnI6ViYpA9SomCZnY0hjtLGr/YCoHhZAT3ljUkFP6yyXl8VxEAIB6T8NWKxjnoqSfW0xpG+xlQiIIiNaFgbZGLr4bJgFYNKEl23yOH8R1FGO6L4JsrSVYWqWeiMrCe5iw+REGwPB3HtTmugRVGfQkZ95Y19Kv8LCfnMJyE3OxoDPdXk1DZNEs9Fo9KH2eD40mNyK+uziWwMs2uwGGmKjLurWj8sokcwxppiK3MxNkMT56qrYOgxvlRROQ3NxdVLs5LAKpfNt1bZnddcgZrBCEkSdUuNctT/LaLvNevVgOKwtl9iHxBloHbaQ3zoxyjSJ9FI9WAMs4JT6hLDCchk0zIuL+axMwwTyokjuFkdcE2zp1PJDYlJmFzScPUMCugdJkkAXczGqZYx6AuMJyEyPhAFPdXk+wXSkIa649iPc1uhkSiSiZkbC5pGBtgMKHWbqdVzHBNK+oQw0lILI4ruLvMRZNIbJODUaynGHpG3qwAACAASURBVFCIRDOYjGBziYOeybr1lIr5MY5JIvv49UcIXJtLIMVBi+QTMyMx6BXgh92c10UhIlRXBF9PqVz1nWy7uZBARAZ2XhW9Lgr5CMNJgMUiEta4Gjf50PxYDOWKga39vNdFIQq1qaEY1lIqV32njl2bS0CWJTw/KnhdFPIJ1loDakCrDjDu48qt5FPpCQV6xcDTQ57QiLwwNxrDLU43Tw64MhNHRAKevuTnObXHcBJAU8MxrKdUcOIj8rvlqTj0CviNG1GPpSYUrvpOjlqejkOWJTw5YIs4tcZwEjBLU3FcmeH6JRQcV2bi0HUDL07YZ5moF1am41jmqu/kgqVJBREZ+HGPAYWaYzgJkFuLKua4KBYF0PX5BPSKgf3XJa+LQhRonECF3LY4rkCWJfzwgpOekDmGkwBIKNUVtkf6OMUjBdetRRXlCnD0hgGFyA38got6ZX40hogEPNphQKHLOFra50b6o/hmNclgQqGwkVIxztnniBwVkSXcWdIYTKinZkZiuLOkeV0MEhDDiY/Njcbw9YqGhMKR7xQOklQNKCP9DChETojHJGxmVEwO8W+Kem9yKIq7yxpk1kapDt8OPrU6E+cUjxRK0YiE9ZSKQa5UTdSVvoSMzYyGUYZ98tD4QBT3lpOIRvhFK1UxnPiMLAMbaRWZKc6kQuGViElcx4eoC0PJCO5kNAxqDPnkvZG+CO4ta4jHGFCI4cRX+hIy7q8mMT3MfsFEyXh1IghV4ccYkR1jA1HcyWhIxvm3Q+IYSkZwbzkJje/L0OM7wCcmBqO4fyXJb7mI6gxoEaynVChRfttGZMXUcAybGQ1x/s2QgPpVGXeXNfSprJ6GGX/7PpCaULCZ0RBjf0yiS4b7IlhLqRxQSdTG/JiC22kVMk8lJLBkXMa9DL+MDTOezgV3fT6Ba3MJr4tBJLTxgSjWU5ySkqiZ9KSCmws8l5A/JBQJd5c1DHOZhFBiOBGUEq3+YS6Oc6VeIiumhqJYS3EGO6JGKzNxXJ1lMCF/UaIS7i0nMTbA2eTChuFEQEPJCO5fSWKcf5BEtsyOxHCD3w4TfXJ9PoFlzu5IPhWRgbvLGia4Dk+oMJwIZmYkhvurSc6iQtShhTEFV9kVkghrKZWt7+R7EoDNJY0zlYYIo6hAlqfjWJnmN1xE3UpPKCjrBn5+WfC6KEQ9F41IWFvkqu8ULBtpFREZ2H9d8roo5DJ+cglibVHF7Ci/FSByysp0HHoF2D5mQKHwSCgy1hZVjPZzIDEFz61FFbIsYfek6HVRyEUMJx5T4zLWF1XOSEHkgquzcegVgycyCoU+tRpMOAUrBdmN+QQiMrB9zM/1oGI48dBofxTrKRXxGCedJ3LLjfkE9IqBA3YFoAAbSlYXJOXq2hQGV2cTkCUJz47YMh5EDCcemR/jnPNEvbK2qEKvAEdvGFAoeMYHqtNoK1z1nUJkdSaOiAz8dMiAEjQMJx64MpvA0iRnUCHqpfWUCl03cPK+7HVRiBwzPRzDWoqrvlM4ZabikGUJW/t5r4tCDmL7bw9FZAm3lzQGEyIPyFI1oIxwfBcFxPyYgo00gwmFW3pCwY159kQJEoaTHulXqwsrTnFqRyLPxKIS1lIaBjhgmHxuaTLOrsFEHy2MK7i1qHpdDHIIw0kPTA5Fcf+KhgGVh5vIa6oiYT2lIpng3yP50+pMHFdmuSYWUb250Rg20gwoQcCzs8vSkwruLGmIst2dSBh9CRnrKRUJhR+B5C/X5xPITDGYEJmZHo7hTkarLitPvsUzs4tuLCRwdZbN7kQiGtSqU6/GIjyLkT+spVQsjnPMIlErk4NR3MtoiPBLYd9iOHFBPCbh3rKGhTGeRIhENtJXDSgyPwlJYNGIhM2MhtmRmNdFIfKFsYEo7i1rnF7bp3hKdthwXwT3V5MYG+DAdyI/GB+MYo0DKUlQqiJjM6NhYpDnFCI7hvsiuLussfuuD/E35qDZkRjurya5Qi+Rz0wPxzjTCwmnX43gTobTXxN1alCL4N6yxglQfIa/LYcsT8exlmLlhsiv5kZjuM658kkQw30R3FlSMaAymBB1oy8h425GQz//lnyD4aRbUnWQ4so0Z08h8rvFcQVXOIkFeWxiMIrNJY2t8EQO0eIy7i1rGEoyoPgBP/m6oMVl3F9NcpAiUYAsTSpY5pcN5JGZkRjuLGmIcSAvkaPiMQl3lzWM9HP8lugYTjo0NhDF/StJDDOFEwXOynQc6UnOtke9tTCuYD2lQmIuIXJFLFKdTXWcE0wIjeGkAwvjCu4ta4jzmy2iwLo6m+B04NQzS1Nx3OCYJyLXyRJwN6Nhaoi9XkTFcGLT1bkETyBEIXFjIYEZdtskl63OJnBlhl0JiXrp9pLKz3dBsV3LomhEwtqiiskhHjKiMFlPqdArBo7flr0uCgXQjfkEFrjqO5EnqovwStg/LXpdFKrDlhMLBrTqwooMJkThtJ7SuLAqOUqSqhUjBhMib91aSGCRf4dCYThpY2q4urBiv8pDRRRWEblakRzmYnjkgFhUwp0ljV1KiARxfT6BpUl2rRQFa9wtLE3GcTutIsKjRBR6SlTCekrFgMaAQp1T4zI2lzRMcLYgIqFcmY1zGnlBsNrdxM0FFVdm+SYlos9URcbaosrF8agjA1oEm0saW+CIBLUyHedCvALgGbZBQpHx1YqG+TE2txPRZf2qjPWUiniMU4mTdSN9EdxZUtlFmEhwS5MKrs0xoHiJn5J1RvoiuL+qYZSrhxJRC0PJCNZTKqIRBhRqb2IwijsZDarCUy6RH6QmFNxcUL0uRmjxk/KjudEYvl5N8uRBRJaM9ke5mje1NTMSw52MhhiDLJGvzI/FsJZiQPECa+IAVmfiuLXINyAR2TMxWA0oRGYWx5VqgPW6IETUkdmRGG6nNa+LETqhDieyBGykVWSmOPCdiDozPRzDTX65QQ0yU3Fcn2e/dSK/mxqOYjOjQQ51jbm3Qnuo+xIyvl5NYnqYA9+JqDvzozEOoKRPrswmsDrDL72IgmJiMIq7GY3jDHsklOFkfDCKr1eTGEpyOkcickZqQmGFlHBjIYGlSa42TRQ0o/1R3F3WOFNjD4QunCxOKLib0aBE+eYiImdlpuLsJhpStW7CC2MMJkRBNZyM4O6yBpVrXbkqVHPmXptLIDXBEwcRuWd1Jg69YmDnVdHronTkn/+nqy1vNwyj6bb/5f/52ZUyiU6JSlhLqRgfCNUplSiUBtQI7mU0/OZ5Fh/yFa+LE0jSv/zzx5fPNAETi0pYW1QxMcgTBxH1xg+7eeydih9Q2oURM60Citl1s8uGYeB//X93bD+3aLS4jLWUimF2EyYKlVyxgt88z+F9Vve6KIET+HAymIxgbVFFX4JNcETUW492cjg8K3ldjC90EkYaORVO6rf9b3/xouty9dqAVj2/cNV3onAqlA08eJ7Fmw8MKE4KdDiZHq4uoCNzeAkRecAwgN9sZ/HqbdnTcvzpH68AACQHV4xsF1CshhOz2/7V/7frWDndMtofxa1FFarCEwxRmJV1Aw+2czh97+3nfJAENpxkpuKcOYeIPFfWDfzmeQ6vz705cdWCCeBsOAHst5bUX24VTup//u9/te9omZ0wORTF2qLKaUWJCMDHL6KeZ/HqHQOKEwLZFn1rUWUwISIhRCMS1lNqz6cu/9M/XukomEiS9Ol/N+w+vllo+S//o9muyuG02dEY7ixxvQMi+kySgM2MxrXzHBKocKIq1YUV50b55iAiccRj1dmc+lX3A8o/+6PlL0KJVWaBpF1IMbu/G0QJKIsTCtYWVa+LQUSC2kirmGUdtGuBCSej/VHcX01ipI8zphCReJIfZ3XSXJwf/5/90XJHj2sXKtwKHXb84781g3/8t2Y8e/7l6TiuzyU8e34i8oe1Ra531K1AhJP5MQVfrWhIcGAiEQlsQK0GFKdXGP6nf5j5IpiYDVZvxk53r04f3224qe/q9Y/+w+mu9tWJq7MJrEyzqzARWXNjgevqdcP3C39cmU1gaZJvACLyh+GP05s/2M6hrHc3H8k//cNMV4+3GxokSbIVfDplNli+3n/xH0zBMAz8618eu16Wmwsq5sfYTYOI7Lk2l0BElvDsqOB1UXzHty0nEVnCRlplMCEi3xkbqM72hC4aFP67/2TJuQLZ4GYXsFbBxyyw/Od/MNnxc7Ujy9X+4wwmRNSp1Zk4VjhBk22+nEq4T5WxtqhiUOP4EiLyr8OzEh7t5Gw95p/8vfQXAcDKZSvX7bIyjbCVKYQNw7B9m9m2//OvT7p6PfXiMQm3FlWMD/i+cwERCWD7uIitg7zXxfAN333yTnycXz7GaRyJyOdmRmLQK8APu+0Dyj/5e+mOn8erAe3ddAOzsgp9/bb/7P4Y/vzfn3b0XPWSieqXX72e+pmIgis9qUCWgR/3GFCs8FW3rtSEgs0ljcGEiAJjfiyGq21mgfpv/26qJ2M97HAi8NgNIM221S7/ydejXZVnMBnBnSWNwYSIHLc4ruAWpyK3xDctJ9fnE1gc5/gSIgqe9IQCvWLg6eGXAyf/m7+zaHp/wzC6Cgd21i6pPZ+VfTodoKyGkvrL//CrEQDA//Xtma3nGu2PYi2lIuHwTGpERDVzozHIMvBo21533rARvuVEiUm4u6wxmBBRoC1PxbE09Xng5H/9Hy9cuo+dynq7x5lpNV2w2W2dTi/cyetoF0rqLxuGgX9wb7hlGepNDcVwJ8NgQkTumxmO4c6S1tWEKEEndMvJ0McpN5MJ4TMUEVHXrszEoesGfnFr6ovtZi0l7VpP7LauWF2vpNfdy+yEkvrLhmHg798dgmEY+L+/f9d0/3OjMXa1IKKemhyK4m5Gw4PnOegVsbrsikDYWv/MSAz3V5MMJkQUKtfnEy3X+bC6zS2tZv3qpKtZp+HDyuXazz++M2D63KkJ9gEnIm+MD0Rxd1mDEmUTSiMha/7L03Gsp1R4NMEMEZFnBgcHv7huN6h0wqvZvNpxMqD80e3+L/a9PB3HtTYTERARuWmkL4LNjIaEImR13DPCHY21lIqVaS5YQ0ThMzAw0HZ19G5uc0qnYcbKmBgr66eYXW63tophGPjDjT4AwNW5BM8zRCSEoWQEdzMatLhwVXLPCHMktLiM+6tJzI5wNV4iCp/+/v5L25otTmim12NBnOzO1e42K6Gk/rZWYeXWoor0BCdYISJx9Ksy7i5r6Fc5jTkgSDgZG4ji/moSw338pRBReNkJIU4FFlG6dLUKJI3Xm4WSZpfr7z81KMbrJSKql4xXAwrXWRIgnCyMKbi3rCHOKRyJKKT6+vo+XW4WPqwEDTv3bac2fXD9f7P7dMNKIGkXSpq1lrRqRSmVSl2Vm4jIDYmYhM2MhpF+oSfTdZ2n4eTqbAI3FjggkYjCK5lMAmg9mNvqz1bsBJZO1i+p3WZ3jZN215vdp9sB8kREIlKiEu5mNIwPhDegeBJOohEJt5c0pCfZ75eIwkvTNADuVpzt7rNduHCjG1i78GFlm52WE8MwUCgUHH8dREROiMjA5rKGyaFwjsPueTgZ0CL4ejWJqaHwJkIioppOW0mcaE1xgpWwYrV1pFn4MOvK1Un3rmbPQ0QkGgnAnSUVMyGcKKqn4WRqKIavVzQMqJ4PdSEi8pSqfl78r9dBpNvKudXV5DspQ7PwYKU1xU4wMQwD+Xy+7esgIvLSekrF3Gi4AkrPUkJ6UsHtJRXRCAe+E1G4JRLVsXZOjzPpNsQ42WXL6jiYdiHFTmuK2fV2YSWbzdp4VUREvXdrUcXieHiGQvQknNxYSODqLAe+ExHF49XF/9pVmlv9rOfVQG+7QaZV+eoDR6tWk3ZdvMxub9ze7rmIiER0fT4RmrHaroaTREzCvWUNC2PhOJhERK0oSvWz0CxQ2Akmnd7WKacGyVsNBI0Bwm7rid0xKBcXF5bKT0TkpauzCSxPx70uhutcCyfDfdWB72MhngqNiKiR1e5GZj/t3tbqeRu3m6lf36TZWiedMAsf7UJLJ60nVoJJ7f/5+bkjr42IyE0r03GszgQ7oLgSTmZHY7i/moQW58B3IiIAiMViXQWTVvdtt81ML1pU7GoWWtqFEivdt1p162L3LiLyk8xUHNfmgjtcwvFmjZWZOJangp3oiIjsiEajMAwDkiR98RPApW3tfpo9pnEbANPL9ds6Vf+c7VjtxvXb4WFEUJ06EwAqAMof/986OjLdZ6vQ0fjc7UJg7fK7d+8wODho6bUREXkpNaFAloHHu8GbddCxpg1Jqk53xmBCRPQlK9/ad9O1y+rlVttabe9Wq5aQ74eGYABofGYD1ZDy3dSUrVaU+utml83KU3/b27dvXTkGREROWxhTsJZS29/RZxwJJ8mEjK9Xk6FcKIaIqBVZrn7MdhNIrFS07Vyu6bRbk1PduX41NAQd1RBioNpyIuFzMCkDKAH4dzMztrpoWenmVdtm9pOIyC9mR2LYSAcroHQdTsYHo/h6NYnhZMSJ8hARBY6VbkWt/pvdv35bt5d7qf511cJHCYCOaiiRP/4sASgCKHz8+Rdzc01bS6weSyv3MQwDZ2dnvTsgRERdmh6OYTOjQQ7IUoJdhZPFcQV3Mxri0YAcDSIih9ntVuRGa0n9Y1tddkLj/sxea03h4//8x/8lABFUW0yyAC4A5D7eVgCg67ql0FF/vVkZ2oVAIiI/mRiMYnNZC8Ri5x0PiL86l0B6guuXEBG1YhjODYSvMduP2eXa8zded3vQfLMw0nhbofZ6UP2m7ALVVpJjVMPJGT6PRTFQ7SLXTTipPx7tfp6enmJsbKyr40BE1Etj/VHczWh4sJ1FoeTfL1psh5NYVMKtRRWTg1y/hIioFSvhwopW4abV5dr1Wlkar5tdNiu/E8xacvKoho43qHbrKqHaUlJB9eQkf/wvNezDajCx2gpl9pOIyI+G+yLYzGh4sJ1DrlDxujgdsdWta1CL4OuVJIMJEVEblUr1pNBtJblVZbzV5cbHml2vfx6z527GrOtWs/s1e35d1/EKwCtUu23lPv4vfvxf68pVu14yORbt/rc6flaO+atXr1oeByIiEQ1qEdzNaOhL+HO9QcspY2o4hrVFFRF/vk4iop5r1prRbFsrdu9v9pjGVpTGbXZbT5oFoWYhqf6yLMsoodpKUj8zV+26UfdfAvAvtrd71qWr8TIRkd/0JeRPLSjvs7rXxbHFUtRYmorjdprBhIjIqnaVZbdbT9pta9xev63+Z6vHd3MMyuUy/vTFi0+LLZZxOZRUUO3u9S+2t5HNZm23nDjV0kJE5EdaXMbdjIbhPn/NqNs2btxcUHFlhgsrEhFZVS6XbYcItyvYVlo2WrUkNDJ7Tc32ZVYGWZahqir++6OjT9MI1/6j7vKfPXmCUqmEeDze02PGcEJEQRCPSdjMaBjt98+QDOlf/+UT4/R9+dINCUXG2mLCVy+GiEgEpVLpUleo+uu1y622mf1st63Z9XbbzW5vVj6gfcuOYRioVCqXLjf+rF0+Pz+HJEn4H1dWPoWS/2Fnp6NwYXa52bZmr6XxtunpaRAR+VnFAB48z+LVu8t1ftFIP/70wniwncVF/vOI/pH+KNYWE1AV9uMiIrKrWCw2rdh3E1K6DSfdBpR67VocrIQTs/sYhoGLiwuUSiVomvZp3Ey7FqB2rT9Wf5ptm5mZMT0GRER+82A7h6M3Ja+L0VK0X5VxdTaBB9tZVCrA3GgMtxZVr8tFRORrtYqt1Sl/67eZDWR3ootRbd+tNHuuVi0njc/RLri0CjKGYSAWi0GW5ab7MNtu9tyd/Gx1mYjI726nVfxWAg7OxA0oUaC6quTV2QTKuoHMFMeXEBF1o1UAscOpUFIrk901S8zCUjRaG1hZBrAH4BRAAfn8PdPAYfVn/WVZlr9oMem2O5eVn6227e/vY25uztaxIyIS1VpKhSxL2Dstel0UU1Gg2g/t7YWOAdVfo/mJiETUrOXBaguK2f6sBguz+3b7+Fo5o9FtAEOonjrOAbxHdRUSHYnEr3Bx8bWlFpJ23brs/K+V2Sx0dBJE2l0mIgqCmwsJRGRg55V4ASX6IV/B717k8PZCxyFKSCgSpodjXpeLiMi3zLpmdbOfZtcbtzW7v5VgYnbf+v3FYv8egIJqKJFQXZWkgPpJgJPJX+H8/L5pCLHScmIlpNTK1U3rSbttrS4TEQXFtbkEZFnC86OC10X5QvRvfrpAsfz5g3froABVkTGUZCsKEVGn6iu0TnbPqu27XetIsxaQ+hBiNhje7PHx+C9RDSTljz+BzyuRGF/87+//Jd6+vW8rmHTSalIrYyddutpta7xMRBRUV2biiEjA05fiBJRofTABgHyxgq2DPG6nNcRj9vonExGFXTabbXm7G+NIzFpPzK63akVpfb+K2SNweVWS6v9mwaQXrSZWfrbb1uw6EVEQLU/HIcsSnhzkvS4KgI9jThq9+aBj6yCP9RRn7SIisqOxQtsqjHQSVMwCSeNt9ZebdfNq1nJiHlL0ZqWBWUAZGfklTk7utw0nVgJKrUydtprY2dbsPkREQbc0qSAiAz/ueR9Qmq6weHhWQkKRuTo8EZENTnTnstJtq3G7WTCpv9wugDRbB2Vg4JdmJTT5+eV/XdcttZjY6dJVK7tbXbmsXCciCqrFcQWyJOGH3Zyn5Wi5/PvzowJURcLCmNKr8hAR+Vqrymw3LSVm25r9bHW51TazRRhbt5rUfn55+ejoG8uD4K2Ek9prbhZGugkkDCdERJ/Nj8UQkYFHO94FlJbhBAC29gtQYzLGB9velYgo9GqVWacHwdf2bTWotAsotTK2CiaSJOHs7BcYGfl39c/YcPly64mu664EE7PLVn5avWx2vdk2IqKgmhmJQZYlPNjOfvmR3yNtE4deMbB1kEcirqE/IfeiTEREvlUfEqze1+x6u8uttpmFEuBy8Gh3/fPPxtaTZt26qpfru3R5FUw6udxsG8MJEYXN1FAUdzMaHjzPQa/09jPQUnPIh3wFW/t53E6riEY4gxcRUTNOVmSdCCgAWoaTVpc/P9asa1ezbl3lS+FEpGDS7rb6ba9fv/60bXl52eQYEBEF1/hAFJsZDQ+3s2ic3ddNlvtqnb4vY+uggJsLCTfLQ0Tke2YVXrdaUxq7kTVua/xp3jJiftvnyx8AqKiucWLWalL7WQGw1zac2AkmnQQSO2HELIiY3Y+IKIxG+yPYzGh4sJ1Dvmg2rbzzbA0k2TstQlUkZKY4gxcRkRk3KrWtAgqApoGkVUix8vPz5acAMqiuEF/fvffLFhPgGMCxaThpFlJqr6Ndq0mrn1Yv167bDSIMKkQUZkPJjwHleRbZgvsBxfYo958OC0goMmZHYm6Uh4jI1+xWZBtbSqxsawwdnYaUdts+KwDYAjAMYALVFpTafbKodvt6C+AdAKBUKkGSJNemCbZzmUGEiKh7A6pcHYOyncN5rtksjs7oaAqurf08VEXGSF/E6fIQEflaN126zPbT2MWrfpudkFJfFjuXAeDp0z/Dysr/BOAVgAtUTx0yPnflyn78b+DRoz9DuVz+VAa7Xbe6bS2pDyOtjrnVLnZERFSVTMjYzKh4sJ3Duwv3AkpH4aRYrs7gdTutQlU4gxcRUU0nFVqzlpLG/VkJKbVtjWWwGlBa+cu//BP87b/9fwB4gy/nlqx8vC4DiOH09BSSJGFwcPBT2ZwIJWaXrQQRtpQQETlHVT62oDzP4uyDOwGl48VL3l3o2NovYCOtwuK5jYgo8BqDQuO2do/rJKTUP1+zlhsr25rRdR2SJOGXv/yv8Ad/8K/weYauCqrdu6L47rt/jvPzc+TzeUiShGKxiEgk4lgoaRdEnAohDCtERK0pUenTIPnT92XH99/VyopHb0vYOpBwbY4zeBERAeZjQzp9fLPb67UKK2b36UStTNlsFn/1V/8IqqoiFovhzp3/Gf/23/4xAODo6OiLMhSLRSiKYns8SX0QsRtC2FWLiKg3ohHp4xiULI7fOhtQul72fedVEaoiIzWhOFEeIiLf67YCbNb60s1zWQ0n7cJAsVhEsVjEhw8fAAD/5t/8ESqVyhf3qw8ntZaTxtvr93l6emr63J100+p0XA8REdknScCdJQ0Pd3J4eVZybL9dhxMA2DqoDpCfHHJkd0REvuV0hbfXFehmIaF+9q3G28y6YpVKJSiK8sV2q0Gk0/Ejdu/n1uOJiMJkI6UiIgH7r50JKI6kCcOoBpSEomJQ4wxeRBReIlZs7Y7HaDYIHcCllpL6y43h5OTkpOW+3Oi21c39iYioM7cWVciyhN2TYtf7cqypI1uoYOuggNtpFUqUI+SJKJzcrhB3Oo7FyvZ2gaPWemLlvoVCwdLztCuj1dvt6GRf5XIZ0Sh7BxARNXNjPoGIDGwfdxdQHP2kPTsvY+sgj7VF1cndEhH5hlOVaDdDSOO2dkGjfpxIq3Bi9XK78nZ6PzeVSiWGEyKiNq7OJiBLEp4dFdrfuQnHP2kPXpegKjJWpuNO75qISHjdVKTtPNZu9yc7rSStZs6yEmTslqUVEYIJUA0nqsov3oiI2lmdiSMiAz8ddhZQXPka6OeXBSRiMubHYm7snohIWE62eNi5n51B5s0ChtkUvmEPJTXlsvNz+RMRBVVmKg5ZlrC1n7f1uIQiuxNOgNoMXhLGBtgMTkThMTc3h729Pcv372Ztjm5aSFoFkVaPs3rfdmVvxs79u12/xY5SqYRKpQJZlnv2nEREfpaeUBCRgMd71gKKEpNwYz7hXjgp6wa2DgrYUGT0JfhhTkTh4Wb3rGbbWwWE2hS+re7XbWtJp6HEyv2ahZBeta5kMhmUSiWUSiXE4+yyTERk1cK4AlmW8LsXuZb3i0Ul3JxXMTEYdS+cAMB5TseTgzw20hoizCdEFDJOt4qYbTe73myFdVGCidVQUQslboYQq60vlUqF4YSIqANzozFEZODhtnlAW+ny6gAAIABJREFUiUaqLSa19RJd73P16l11Bq8b8wm3n4qISAjtZqlqdt9221sFkWa3t7vNakjpZTBxMpS0Cx92nqNUcm4FZCKiMJkejkGWJDzczqJS97Ery9UpiKeHP49T78mAkN2TIlRFxtKk0ounIyLy1OLiInZ2dj5d73Zmrdq2VkHEbJsbLSXdduUyu09jgOg0lJgFEbv7atzH8vLyp8scFE9E1LnJoSg2MxoebOdQ1g1IEnBzQcXMyJcTaPVstPqTgzwSioSZYc7gRUTBZ7X1xEoQaXU/q9fdCCTdDn7v5nHdBJFWrSmt9lEbdxKL8TxGRNSJsYFqQHm4ncXKTAKzI5c/T3s6ldaT/TxURcZwMtLLpyUi6jmrFXerQcTKPv0aTuyw0+Wrm4H0Zo8tl8sMJ0REXRrpi2BmJIaxfvMY0tNwki8Z2NrP43ZaQ0Lp3RSQRES9trS0hGfPnn2xzSyI1LabcaO1pP6y0+Gk2bZu1QeFVvu32z2sXQvK6urqpe0cd0JE1J3f7+ex86qI0/c6bqdVJBtm9e35IiRvL3RsHeSxkeZKu0QUbHZaRZrd5nRrSf1lN8aZOBVOOgkkdoJLJ/cHGE6IiLqxdVANJkB1Vt/vn2exkdYwoH4OKJ5M8PvyTQlPDjpb0p6IyC+Wl5dhGMYX/+uZ3dZuW7vrbvyvf452z9fstVl9HiuPt3K/RlbvV39/M6VSCbquN30cERGZ++mwgO3j4hfbLvIVfP8si7cXnz9XPVu+/flxAQlFwuI4Z/AionBwq/tW4/Ved+dq11pidns3LRlW9tftc169etV0e23cSSTCsZNERFY9fVnAsyPzhol8sRpQNtIaRvsj3rSc1Gwd5PHqHadmJKLgun//fttWBbPtdq932hJidVuzy1ZaS8zYaUVpdn87t1u9TzuGYbBrFxGRDc+OCvj5ZeseU8Wygd88z+LkfdnbcFKpVAPK+1zFy2IQEbnq2rVrlirzjdsa72d2e6eXuw0lzR5ntt1OaGq3j1b3adRpYGnWalLDcEJEZM3z4yJ+OrQ2lKOsG/j+WdbbcAJU+5o9OcijpLs/BSURkRfqp55tV5lvts1KYLFyudXtney32b470UmY6Pbxjfe5du1a23KWSiVUKvxSjYiole1XRTw5yNt6jGF4NCC+0en7Mrb27RWeiMgvotEoFhYWOg4k7a5budzt7a0eV6+TFpNuwkQ3YabV76KVUqnE1eKJiFp4cVLsuG7v2YD4RvuvS1AVGcvTca+LQkTkqGg0img02rTy3G5bY4Cxcltji4jT921V/kZm97GzQGK7we6tBsvbeez169dNy9SoUqmgVCpBUTihCxFRo93TIn7c67zRQYiWk5qnLwvYf82+vEQULJFI5FPrCdBdq0nj/dtdrr+/lfta2a/Z9cYy22mt6Lb1w4nHWg0mNRx3QkR02f7rEh7vdtcbSqhwAgBPDvJ4fc7mciIKlmi02lBdCyg17Sr9VgOLnbDS6e2trrdrQbHTdaoXYcRKOVphOCEi+tLBWQk/7Oa63o9w4aRYNrB1UMBFgYMNiSg4auEEaD8jV+P1TltNugkoZpfbtZw0vrZmQcBOq4nZ/a3e1nh7s9tu3Lhh+rytlEolBhQioo9evqm2mHT5vQ8AAcMJALzP6nhykEeFE3gRUUBEo9FP4xtSqRQA97pydRJArDzO7LpZubthN6x0e9vNmzc7KmdtMUYiorA7elPGD7t56A5V3IUMJwBw/LZse/oxIiJR1QbF19hplbATHBovdxpW2pWx2bb67Xb+N+NEy0iz2zoNJjWcsYuIwu74bRmP93IoO7gkiLDhBAB2XhWx/arodTGIiLrWGE7S6XTHoaR2vd39nAgujY81u71+W6etJ1YDixtBpVNsOSGiMDt5Vw0mxbKzXZ2EDidAdQX5ozf8doqI/K8+nADA0tISAGstJ2a3dXu52f5blcNq60kjqy0lzR5j9/Z2t926dctSGVoplUrQdb3r/RAR+c3p+zJ+2MujUHJ+DIYw65w0ZVQDSkJRMZSMeF0aIqKO1a8UX9OuhcLubW5ctnK93Xar97Oy/onZfWq3W7ltbW3NUhnbqS3GGInw3ERE4fH6XMfjvTzyRXcmrxK+5QQAcsUKnhy4k86IiHqlflB8TSaT8azlxG6XMbPr7bbb1YuuXU6QZRmqqjqyLyIiv3jzQcfjvRyyLs6q64twAgBnH3RscYA8EflY47iTRq2CQLsA4dRlO60nZo9ppZNwYDWoWL1tfX3d1vM3U6lUoChKy98nEVGQvL2oBpOLvLvLffgmnADA4VkJPx0WvC4GEVFHmoWT5eXljlpOzG5z4nK752y2rfG2Zq0gzW5vF1y6bU1xKpjUSJLELl1EFArvs9WuXOc599ch9FU4AYBnRwXsnnIGLyLyp2bftK+srLjavcvs8e3223ib2e1Wb7PKSlDppDVlY2Ojq3KZ4WxdRBQG57kKHu/l8T7bmwlAfBdOAODJQQEn7zmDFxH5T6tuQKurq58uO91aYjewWLnerHxOsRNUOn18N0qlEioV979FJCLyykW+gsd7Oby96N3MhL4MJ2XdwNZBHucu93kjInJauzEKU/OXu3jVX3az61az28yum5XHTKsuXJ2MV+kkiNy+fdvSc9hVKpXYekJEgZUtVPDDXh5vPvR2ynRfhhMA+JCr4Ml+3tEVKYmI3NZqUPzZBx0/7uVwVJ7FUXnW0ZaQTrqLmV1vts3s9k6Ch5XH2GlN+frrry2VoROVSoXhhIgCKVesduU6O+99TyXfhhMAOHlfxtYBB8gTkX80Cycn78v4sWFBq2N9zlb4cLv1pNm2ZmXolNWg0u4+d+/eRbHo3hjFSCTiWpcxIiKvFEoGHu/lcerREApfhxMA2Dst4tkRAwoR+YMkSZfCycs3Jfy4l4deuVzRfVWZN62sdxI43Aombo7r6GSAfLFYxB///T8xXfTSSYqiuP4cRES9VCwb+GEvh5N33o3t9n04AYCfDgs4OGPTOhH5Q3042X/dfor0E2MBJ8bCp+vdtp7Yua3dNruhpJtB6lZCysXFBQr9N/EXf/Mzsll318aKRCJIJBKuPgcRUa+U9GqLyau33k46FYhwAgBPDvI46/GAHSKiTtTCyc4rey2/J8aCI60ndgfC2+3e1fjYZoHEycHx+XweaurvIpn+OwCA1+dlPDl0N5yUy2V26yKiQNArwOO9PI7eeP9lf2DCSaFk4MlBHrkiZ/AiIrHFYjFsn+h4cWJ/PMQpFi9Vip1oPbFyvd32+ufvtNJuN6yUy2V8SFxBeWgdp8f7OH939um2V+/KeOLiwr2crYuIgqBiAI93c3gpSC+kwIQTAHh7oWProAB+kUVEIvv9QQkv33b+RcrbaAavpRQA96YKttuNy61xJ632e6FeRb7vRsvHH70p4eeX7gUUrnNCRH73eDcn1PCIQIUToHoicrspn4ioEyXdwIPtHA7OyohEWq93YkUtoAC9CSbN9KJrU31rSrFYxIV61fJjD85K2D52dtYuSZKgqipkOXCnUSIKkce7eey/FieYAED3Z0cBbR8XkYjJSE0oXheFiAgAkCsa+GE392lqRtmBcAIAZ3IaydwWFOXz512vgkmvx1sYhoFc8npHj909LUKWgcVxZ84LhmEgFot9cdyJiPzkx708dk/dm269U4EMJwDw5DAPVZExORTYl0hEPnGeq+CH3RzeXnyetCMSiTi2/wv1Ki4ADOvPhQwmdu4rSZLp9qx2zfI+mtl5VUREljA36sz0v7rOSViIyJ9+v5/vaNxjLwS2PbpSAbYO8niX5cmDiLzz5kLHw+3sF8EEACKRqONdgt5Elj5d9jqYdDowvnFAvK7rjgSTmmdHBbx0aDYaDoYnIj96clDAzisxgwkQ4HACANlCBU8OCiiWOUKeiHrv5H0ZD59n8SF/edB0JBp1rGtXvcLgBnK53BfbrM7CZeU+7R7r5MD4XPI6Cv03HdlXvZ8OCzh2YIExXddRLnu7HgARkR0/HRbw/FjsxcsDHU6A6lz3WwccIE9EvfXyTQkPt3PIl8wr6pIkOzIovlHu4hyFgVvAxH3k8/lLlWcrLSTdTCHshFzyesdjS6x6cpD/NP6nE9FolAswEpGvPH1ZsLW2lldCMSDj4HUJqiJjZTrudVGIKAT2Tkv4YTfX9n6RqEsfwYaBd29Ogf6bKADQkgPQj36FaPRyVzKngokT3A4k9QwDeHJYgCxLGOmzP/7HMAzE43FHxw4REbnl2VHB1WnVnRSKcAIAP78sIKHImHdoICQRkZnt46Ll1lo3Wk7MZC/efwoqCTVZDUWv/ubS4PNeBxNd11EcuNXx47tV1g38dJjHtbkEBjV7IUPXdRiG0XQAPxGRKJ4fF/GTiwvSOi004QSoNuOrMQljA6F62UTUI09f2vtmKhKJQpJlGD1cyC+fu6heaLJOiHrx46fLrSrenYQSXder/4c3bD/WLYWSgScHBVyfT6AvYa+nMwfEE5Hodl4V8cRnwxtCVUsvlQ08OSxAVWQkbZ6EiIha+f1+3vbsJ3IkgkgkinJFnFlTmnWtkuUIEloS2Q/vP22TXv/mi/vUh5n6y7quA2ObDpfUObliBU8O8rg2n4CmWD83cDA8EYnsxUkRv9/3VzABQhZOAOB9VsfWQR4baQ0R5hMi6pJhAD/s5jpaYVeWP4aTkjjhpJlKRf8imACAMXrny+u9LJDDPuSrszten0sgHmveYiRJEmKxGKLRKGKxGLt2EZGQ9k5L+HHPf8EECMFsXWZevSv7romLiMRT0g083O4smNRwQLU43md1PDnMo6y3HmOjKAr6+vqgqmoPS0dEZM3+6xJ+2Gs/KYuoQhlOgGpT1/Nj8b+tJCIx5YoVPHiew9Hb7sYduLHWCXXuzQcdTw4LqLRoBopEIkgkEojFYmw1ISKhHJyV8Hgv5+um7NCGE6A6QN6plYKJKDzOcxU82M7h9Xn3Yw4i0SgkKdQfxcI5fd+8dT0ejyPq1hTQRERdePmmhMe7efRwjhVXhP6MuHVQwJsL3etiEJFPvPmg48F2Fu8c+tyIRKLs2iWgV+/KplNvRiIRxONcM4uIxHL0tozHu3norZp9fSL04ST/cZaWfNH/v0wictfJuzIebGdxkXfuaylZjkBJqIjGFMf2Sc54+ab0xWrKkiRBlmW2nBCRUI7flfF4N4dSi/FyfhL6cAJUvwndOuQAeSJq7vBNCQ+2cyiUnP/wj8dVJFSN3bsEtP+6hO2PU0THYjEoioKK3/tMEFFgnLwv48fdHIrlYAQTgOHkk5dnJTw58M/qmUTUO7unRTzazrnWXB6JxhCPa4gn1Orq7SSU3ZMidk+KkCQJqqpClnnqJCLvnZ5Xu3LlXfjSzEv8hK3z/LiAFyecwYuIPnt+XMTjXfdbViVZRlzVoMQ5Pa2Idk7KOHzD8YlEJIazDzoe7+aRKwavJZfhpMGTgwJeveOqv0QE/HRY6OmaSLFYHPE4v5kXkSzL2HkN7HWxpg0RkRPeXOj/f3v32dfGtb19/JpRB/cOhuDkhDT/j8/9/l8FxAgsYRuhRu+g6TP3g7ETO3GhqEz5fR/5E8dGFmJmrr33Wkv1tqWBk71gIhFO/iUIIzV6tk6tbH7DAVzOasf+rBh6XAqFIrNPEihSpGKporWuqz4t6AFMyPFFvGNyPsTGLElDOPmCczvu4JWVrgcALi+MpD83rYkd8TRMU4VCUWK4XyIYpqliqaxisSRF8T3h9aalHXbYAYzZ6SBQvWPrzMr2EVPCyVfEQ7gokAfyxPUjLW0M1Jvw0Z1KtaZKpUb3rgQoFIqq1qZVrU3L/DCPJgyllU1L+0MYwgkAl3Fmhap3bJ0Osh1MJMLJN3X2Xb2dwLEOAOM3cEItbVjaOZ78A2exVFZt6haduxLAMAxVqnGjAtP8e1im60da2bQZ4gtg5C7sUPWOpeOcXG8IJ9+x3ncmvooKYLROrUBLG5YOErISbpoFFUtlVapTKpWZRj4JH78HhUJBUfTls92WG2pl06JGEcDIDJx4x+ToPB/BRCKcXMqbvq2Ds/x8KIA8OTyPg8lJArfKy5VqfJzokxV7jEexVFK1Nq1ypSZDX6//ObfjgHKR0a45ACbHciPVO3ZiFs7GhXByCa4XqdG3M9uyDcir3RNfSxsDXSS060mhUFS5wmDGSTBM8+9w8p3WzieDQCubVuYGoQGYHMeLtNqxtH+ar2AiEU4u7eQiUKPnaEQDogGMWf/Q09KGJSfhD5SGYcTduzAWZiE+zmWaBUW6/Gfj8DwOKHR5BHBTrh+p3rFyO3ePcHIF28feWAeyARiN9p6r5ZalICWrDYViMR7MSHvhkSuVK6rWpuNanyt+PPZOfa20bRaxAFybF8RHuZLQnGVSWI67otauq2rZ1I9PypN+KQCu4d2Oq2bKFhlK5aqiMJLjDBT4+b1hjcPH1sHXtX3kqWBIr17UhviqAORBEMYDgLdzPuiVnZNraPRsbec40QJp1eg7qQsm0ocH5qlplUp07hqVQqGoYqk8lNkyvUNP9U76PmcAJieMpHrHUv8w38FEYufkWqIoDijVUk33pumiA6RBvWOrPaGp7zdlGIYMo0Bh/IgYpqlypapCsTS097i956pgSr89rw7l7wOQbfWOzeiKD9g5uaaBE6rRdxJfTAvkXRBKyy0rtcHkUxTGj0YUhiqWynGtyRB3pzZ2XK1vMcgXwLfVO7a6++m/Rw0L4eQGDs98CuSBBHP8SEutQWa2yQvFksqVmsqVqsqVKgXyN2bI/Os412jey7dbjt7v8NAB4MtWu+nd1R8VluFuqHfoqVo29cssZ8GBJLlwQq20bR1maHhVoVBQdWo6PlsqKQh8CuRvoFAoqFKbkmkWZI5wV6rRs1UwpYXHNFIB8Lc3PVubuwSTfyKcDMG7bUe1sqn5R6VJvxQA+jAUr23rNIFT32/GULn8dw2D73lyDVu+x83tOiJFKpUrY2k0sNqxVTANzT3kPgEgbtCywa7qFxFOhuRNz1a1bOjxHd5SYJIOzgKttC0NnGROfR+mcrUqwzQU+L6iKPv/3mExDEOGaco0CzI0vqNxr9uWCqY0c5+AAuTZ+paj99vUo30NT9JD4geRGj1H1bKp21VKeYBJ2Dn2tdK25Pr5aFRRLJZlmkX5nqcwDGQYhjzXJah8gWGaKhZL8REu0/w7nJhjvF5H0uvNeAflyV1uv0Aevd1y9JZGGd/EU/QQnVmBmj1bfpCPByMgSXqHnpZag9wEk49M01SlNqVqbVrVqVu0G/4KwzBVqU6pWptSpTYdv1+1qbF3QAvCSK/blg4yVAsF4HLebTt08LsEwsmQ7Z74avT54AHjtLnn6s+WpTCnGwblckWV6pTK5aoqlZqKJQqv/ymKQhWLJZXK1b92UDTGI12fcr1IK21bxxdZq4kC8DUbO66aPB9eCuFkBNp7rt5R5ASMxbttR6u5n8b990N2qVJVpTols8CAWNM0VSiWVCpXVC4nq6PiwAn1um3pzMppogZypLXr6g2jJy6N/f8RafZs1UqGZh9Q+AiMSqPn6P0OK1GfKhZLKhZLCnxPvu/JNEz5vqswJ9tKhUJRhWJJpml+qC0p/PXrpAW2cyvUStvS/17UNFVhrRDIos09V2tdgslVEE5GqNGPC+Qf3ErWDRHIgnqHwVXfUqlOqRj4Mk1T9kBy3XzcHAvFoqofZpcYHwOKkdwH/+OLQK/btv7fi5oqJYZqAlnS2ffY2b+G5F6xM8B2QzV6tiw3HyuWwDgEobTcsggm31Esl1WtTccT5avV+GhTtaZCMeu7uYbKH+puCoViooPJR4dncZc5mqkA2dE98FTvWJN+GamU/Kt2yh1fBGr0nI8DnQHcgONFWtoYqH/oTfqlJN6n8ztK5cqH7lTTiau9uCnDMFUoFFUslVWuxMXuaWylvHvi63Xb5l4BZEDvMN4x4ef5ejjWNQZbR56qZUO/Pa9+/38G8EUXdnw+//CcDkdXVSiUVCjEOyaGYcj3PQWBrzBI53tpGIaKpfInM0s+qSuZYBeum9o+8rRiSv9dqE36pQC4pq2jOJgEIcnkuggnY7Kx46pWNrXwmBafwFWdDAKttG2dDtL5MJ0kxWJJtanbcuwLOcHfRw4Mw1CUkmW+KJJKpbJK5epnAxWzoHvgqWAa+mOexSwgbbaPfdU7zLu7KcLJGDV6jqolU0/v8bYDl3Vw5mulbWvgpO+oThIZhqlypaooChUEvgwj3nWQ4qL5KBVdvSKZhaJKGTui9tHmnquCaejX59n89wFZtHvia7VjycvZIOBR4Cl5jIIwUqNvq1qu6e5UNlb5gFHaOY4LhfM29X0ciqWyqrVbMgzjQ2crQ2EYyHOdv7pcRVGUkKNfxietgc2/jnNl2fsdRwVT+nmGgAIk3d5pvGPieNyrhoFwMmYXdqhm39H/XtRULqbzXDQwDt0DT/W2JY7tjkahUFSh9nl9xsfhjaZZkGmYCgJftnXx+R80jA/teQ2FQXDJo2CGpMt/I41P6kcM45Nf//XfTZmF7N++1rccFUxDPz7lODCQVPtnvlY7tmw6sw5N9q/uCbR/6qvRsyl6BL6itcvQqvH4fIGkVK6oUCz+FQaCwJfvuYqkz3cujDgoONaFfP/zzmnx738+ANHzXAX+lzusGYbxj4L2v//cx6/16Y6JYeRrUedNz1bBlH6gXhFInMPzQKsdjh0PG+FkQroHnqplU4ts2QOfebvtaL3P1PdJKBSKKnyyI1EollSduqUoCv+xcxHvaISBr/DD7305TPwdKCzfi3ddjH8fz/r3r//+GogHjhZMQ88fZn1GDZAeRxeB6h1LFzbBZNgIJxP0dstRrWxqjhsOICleJd7YYbhiUhgyVK5U492NLwSFcrX272Bh/L3z8VEURQrC4EMw+UfI+WTHJK0tgMfhddtSwTT07D63bWDSTgbxjsm5RTAZBa5yE9bo2aqWDT26zbcC+bbSttXZJ5gkzbda9BaLJRUKxe8Gi2KppJo+Ft/H4SVvx7NuKoo+BpSaHt/lfgFMyqkVqN6htf0osWc+Ya4fqdFz2BZEbvlBpKWWRTBJIcO43NBDwzBVKlfiwYmFIsHkmvwg0msGkQITc2aFqrdtnVzwMzhKhJMEOB0EavRtBeQT5IztxcFk6/DLxdIAPud4kV5vWjph1RYYqws71GrH0jHBZOQIJwmxc+yr0ac7EfLj3A61tDHQ3ok/6ZcCpMrACfV609Y5O+7AWAycUPWOza7lmBBOEmRz16UYGLlwfBFoacPSERd64FrOrECvNy1ZzFYARspyI612bB2csZA2LoSThGn0bW0dccQF2bV/6mtpw9KZRTABbuL4ItDrTVuOz6RSYBQcL9Jqx9LeKcFknAgnCRNFUqPv6Igzjcig7SNfSy1We4FhOTjztdK2qFkEhsz1I9U7tnY5ejx2hJMEspxQzZ4t22U1DNnRPfC01BrIY5UXGKrdY1+v25b4yQKGwwvio1w7x5xkmQTCSUIdngcUyCMzWruuXm9ainh6AkZi69DTSpt7BnBTQSitdjhiP0mEkwTrH3pq9J1JvwzgRt5uOVrr8tAEjFp339UqP2vAtYWRtNqx1Ke9/UQRThLu/baj9h4dvJBOb3q21rcI2MC4bO66LGoB17TasdU9IJhMGuEkBRp9h4IspEokaaVt0xobmID3247ebhNQgKuod2x19rlnJQHhJAX8IFKjb+vMoh0Lks8LIi1vWFzkgQla7zva2OVnELiMta7NKZUEIZykxLkVqtGz5QVUFCO5LDfU8oZFISGQAG+6ttosEgDf9KZnq0WQTxTCSYrsnfpq9NiqRzKdWaGWWwyrApKk3rbVo7gX+KJG3+H4cQIRTlKms+/qHWeJkTBHF4GWWwMdnTM8FEialbal7WMWDYBPrW85es/zVCIRTlKo2XdYCUNi7J36Wt6wqIkCEioM44DCriYQe7vt6C2dJBOLcJJSjZ6tgzNWqTFZW0eeljYsWS7BBEgyz4+00rZ1yO4mcu7djqt12m0nGuEkpRwvUrNva+DwUIjJ6Ox7WmpZ8mnSAKSC7YZaaVs6GRBQkE8bO66aPQaVJh3hJMWOLwI1+o5Cng0xZhu7rlbaVjzQBEBqXNihVtq2zm0WtpAvrV1XbwgmqUA4SbntI08NftgwRutbjt50+cwBaXU6CLTS5jgm8qO952qN+1ZqEE4yoLXr0qMbY7HWtSkiBDLg6DzQStuW67P9iWzr7HuqE0xShXCSEY2+TatIjEwUSa83LUIwkCH7p75W2rYCNlCQUd0DT6tdjiCnDeEkI8Iw7uBFoSOGzfMjLbUsdQ9oXw1kzc6xF9ePARnTP/S02rEVEr5Th3CSIQMnVKPnyPFYIsBwWG6opZal7SOCCZBV/UNPK22OvSA7to7iYBLQMSiVCCcZc3Dmq9HnJoObO7NCLW1Y2mdwG5B5nX0KhpENO8e+Vju2PNrcpxbhJIN6B57WKVrGDRydB1pqDXR8wTFBIC9au66aDKdDiu2e+Kp3LBo9pBzhJKPebjnq7HMUB1e3d+JrqWXp3OKgLpA377YdvdsmoCB99k7jHROOtqcf4STDGn1bexzJwRVsHcVT323mHwC51ew7dOZDqhycxcGE2T3ZQDjJMM+P1Ow7TALGpXT2PS1tWPI5pwvk3lrXZvcdqXB4Hmi1Y2vg8KyTFYSTjDsdBGr0bB448U0bOy7tRAF8ZqVtqX9IQEFyHV3EwYRF2GwhnOTA7omvBkWO+Ir1LUdvenTpAfBvK21bOwz4RQKdDOJgcmbRuCVrCCc50d5z9X6HM8T43FrX1ls6uwH4iiCMtNKmpTiS5dSKg8kpg6cziXCSI42ezRY9JElhJL3etCh6BfBdrh9ppW3r6JwHQUzemR1qtWPT6j7DCCc50+g7OuQGk2uuH2l5w1L3gKAK4HIsN9RKx2Kgq/KDAAAT50lEQVSlGhN18SGYEJSzjXCSM7Ybqtmn3V5eDZxQyy1L28cEEwBXc26FWunYuqD4GBMwcEKtdm0dnnHEMOsIJzl0dB6o0XcU0cArV04HgZZbnB0HcH0nF4FW2pZslxsIxsdyI612be5fOUE4yamtQ09NOnjlxuF5HEw4owvgpg7PA610LHk+AQWj53iRVruW9k4IJnlBOMmx9zuONvcoiM663RNfyxsD+sADGJq9E18rHVsh+QQj5Prxjsku7axzhXCSc82+Qw/7DOsfelpuWbI9niAADNf2kcfwVoyMF8TBZPuIGsm8IZzknB9EavZtndCBJXPa+66WW5b8gGACYDR6B57qHYa4YriCUFrt2Npi/EEuEU6gcztUs+/I5fxwZrzfcVVv88AAYPTae67e9LjeYDjCSFrtWMxlyzHCCSRJ+6e+GhTIZ0Kz76jBgwKAMdrYcbW+xT0ENxMp3jFhDle+EU7wl+6+q7fcXFJttWPr3TbfQwDj93bL0fsdmqzg+tY6tjr7fIbyjnCCz6xvOaxYpFAQSn9uWnRfAzBRjZ7NdQjXstbls4MY4QT/0uzb2mcCa2o4XqTl1kA9QiWABOBYDq7qTc9Wa5dgghjhBP/ieJGafUcXzMVIvAsn1HLLoh00gERZaVvaogUsLqHZd7TBcUB8gnCCLzq5CNToOwrIJ4l1Moinvh+wywUgYaJIWmnb2mWqN75hfcuhThL/QjjBV+0ce2r26fqURAdncTA5uWA+DYBk8oNIK20WUPBl77YdmvDgiwgn+KbWrst2a8LsHPtabg04dgcg8Rwv0krb1hELKfjE+x1XTcYX4CsIJ/iuZt/m7HBC9A49LbcsOR4DMwGkw8AJVW9bOrNYUIG0sesyiwvfRDjBd4VRXLDGytdkbe65+rNlKQgJJgDS5cwKtdK2dOEQUPJsc8/Vmy7BBN9GOMGlDJxQzb4j2+XBeBLebTta7XBBB5BexxeB6m1bNju/udTed7mP4VIIJ7i0wzNfDQrkx67RdzibCyATDs581duWvICAkiedfY9ggksjnOBK+oceD8pjVO/Yek+bRQAZsnviq962xQnVfOgdeFrtWor4fuOSCCe4snfbjtr7dPAapSCUlluW2nu8zwCyZ+vIU71tTfplYMT6h55Wu7ZCSo1wBYQTXEuz5zBca0QcL9JSa6D+IR3SAGRX94CjPlm2dRQHE58jfLgiwgmuxQsiNfsOrSGH7MIOtdSytHtM8AOQfZt7rho9jq5mzc6xr7WuLc8nmODqCCe4tjMrUKNvU9g4JCeDQEstS4dMUwaQI+93HK0zKTwzdk98rXZt5nHh2ggnuJG9E19NVr1u7ODM19KGpdMBs2QA5M/bLUcbO9TYpd3eaRxMbJdTFbg+wglurL3v6h0dpa5t59jXUsvSgOFkAHLsTc/WJk1AUuvgLD7KZXEvww0RTjAUzb6jHgXcV9Y78LTUGshl+xsAtNqx1T3gXpI2h+eBVru2LmyCCW6OcIKhafYdHZxxLOmyNvdc/blp0WIRAD5R71jaOiKgpMXRRaDVjq1zGuRgSAgnGBrbDdXs2xxPuoR32w4tNAHgC8JQqrdt2tWnwMkg0FrH1pnFwiSGh3CCoTq+CNToO0z+/YZGz1GzT40OAHyNF0Sqd2x24xPs1Ip3TE5o5IIhI5xg6LaPPDX77Ap8Sb1j6/0OwQQAvsd2Q9U7lo4vePhNmjM71FrH5nuDkSCcYCQ2dly1dum68pEfRFpuWWrTiQYALu3CDlXv2Az8TZCLD8Hk8JxggtEgnGBkmn1H20w6l+3GwaRPNzMAuLLTQaB6h3brSTBwQq12bR0wLBgjRDjByARhpGY/3+dRz+1Qy60BhZ0AcANH54HqHaaOT5LlRlrr2to/5X6G0SKcYKQu7FDNvpPLG8rxRaDllsXWNwAMwf6pr5WOJT/I3/1k0hwv0lrXYqENY0E4wcjtn/q5K5DfP/W13LJ0muNdIwAYtt1jX/WOrYh8MjauH2m1a2uHY9oYE8IJxqJ74Gl9Kx9dqraP42DC+WgAGL7+oacV5kSNhRfER7m2GYqJMSKcYGzebjnq7Gf7Atc98LTcGsj1WdYDgFHp7rta7RJQRikIpbWuTTMXjB3hBGPV7Nvay2gxXWvX1etNSyEbJgAwcpu7rhoMtB2JMJJWu7Z6BwQTjB/hBGPl+pGafUfndrae4N9uO1pjFQ8Axur9tqO32wSUYYokrXVsdfeZy4XJIJxg7E4HgZp9OzMdV970bK2zegcAE7Hed7TB0N+hWevYahNMMEGEE0zEzrGvZsof6KNIWmnb2tjhIg4Ak/SmywP1MKx1bW3u8T5isggnmJjNPVfvU/pg7wWRljctdbgZAkAi1Nu2ehRvX1uj56jFDhQSgHCCiWr2bfVT1qLQckMttyxtcRMEgESpt21tM4/jypp9R+930n2aAdlBOMFERVF8UTxKyRT1MysOJntMyQWAxAnCSPW2ldmukKOwvuXoHU0FkCCEE0yc5YRq9m1ZbrI7eB1dBFpuWakJUgCQR64fqd62dci1+rvebTt6m5MByUgPwgkS4fA8ULPvKEpoA6+903jq+5nFzQ4Aks5yQ9Xblk4GXLO/5v2Om/rGNMgmwgkSo3/oqZnAFZytI09/tixZTrJ3dgAAfzu3Q6207czN1RqGjV1XjR6zuZBMhBMkyvttJ1FtDDsHcTBx/YRu6QAAvup0EGilbSX+2PA4be65esPQYCQY4QSJ0+w72klAwfnGrquVTUshuQQAUuvoPNBK25bDIpPa+65WCSZIOMIJEscPIjX7tk4neFZ4fcthZQkAMmL/1Fe9bcvP8WpT58DTWteW8vsWICUIJ0ikcytUs+9M5DjVWtemewkAZMzOsad6287ls3nv0NNax1bI6TakAOEEibV36o+1k0gYSa/bNhNyASCj+odxQMmT/pGn1Y6tIMe7RkgXwgkSrbPv6u0YhkO5fqQ/W5a6+wQTAMiyzr4bH2/Kga2jeMfEDwgmSA/CCRJvve+oe+CN7O8fOKH+bFnaOhrd1wAAJEdrN/szPnaOfa11bbpNInUIJ0iF9b6tg7Phd/A6s0L9uWlp73Ty3cEAAOPzbtvRuzHszE/C7omv1a4txyOYIH0IJ0gF24vU7Du6GOIwraPzQMstS0fnTBAGgDxq9p3M1RnuncY7JjazXZBShBOkxvFFoOaWo2AI19u9E1/LLUtnFsEEAPJsrWurs5+NY70HZ3EwGTgEE6QX4QSpsn3kqdm/WSHj1pGn5U0mBgMAYvWOpf5hugPK4Xmgta491BMGwCQQTpA6rV1XG9fchu/se1puWfIoEAQAfBBFUr1ja+c4nfWHRxdxMDmzCCZIP8IJUqnZt6/cXWtjx9VK21JELgEA/IMfRFrppK9ByskgDianA44pIxsIJ0ilMJTWtxwdX1zuYry+5ehNLx997QEA1+N6keodW4cpaZRyaoVa69o6ueS9EEgDwglS68IO1ew7st1vb4WsdW293cpmu0gAwHBZTqh6x9JJwncizuxQax06TiJ7CCdItYMzX82tL++IhJH0etPKXJtIAMBonVuh6h1b5wktLr+wQ62laIcHuArCCVKvd+D9a9Kv60dablkjnSwPAMiuk4tA9Y6duM6OAyc+yjWKwcRAEhBOkAnvth219+MdkoETarllafuKBfMAAHzq8MxXvWPLTUiHR9uNtNa1U1e0D1wF4QSZsd531DuIWwXvc+EGAAzB3kkcUIYxAPgmHC/SatfW7gn3N2Qb4QSZcatWULlkKEzGAhcAICO2jzzVO9bEvr7rxzsmO8ecCED2FSf9AoBheHKvqJfzNVVLhhRJf25aidmGBwCkX+/AU8E09HK+Otav6wVxMLnqbC8grdg5QerNPijpfwsfgomkx3eLWpytTPhVAQCypr3njnVmVhDG7fD7hwQT5AfhBKn2w+Oy/veipmLB+Py/PyrrP88IKACA4drYcbU+htlZYRQHkx5dJ5EzhBOk1k/PKt/cXv9ltqLnD0tjfEUAgDx4u+Xo/c7oZmhFioNJZ585XcgfwglS6ZfZin69xNGtX2aqenib0ioAwHA1erY290YTHta6ttoj+ruBpCOcIHX+mK9e+shWtWxocbai6SofdQDAcK12bHWGfOzqTc/W5i7BBPnFExtSo1gw9OpFTQuPy1f6c/enC1qcqcjk0w4AGLLVtqX+kDppNfqONkZ4XAxIAx7XkArVkqFXCzU9f3C9GpKZ+yX9Mjve9o8AgOwLI6netrVzfLPhiM2+o/fboy+0B5KOcILEm66aevWipqf3blY78uOTsl48udquCwAA3+MHkeodS/tn1wsob7ccvSOYAJIIJ0i4u9MF/e9FbWhF7b/MVvXsPh28AADD5XiR6m1bRxfBlf7cu21nLK2JgbQgnCCxHt4u6n8LNd2dKgzt7yyY0i8zFd2bHt7fCQCAJA2cUPW2rVPrcgHl/Y6rZp9gAnyKcIJEenqvqP+9qI2ky9Z01dTibOWvifIAAAzLmRWo3rZ1YYff/P9au64aY5w2D6QF4QSJ8/xhSa9e1FQZYXh4dLuoRQrkAQAjcHwRqN6xZbvRF39/c8/VWpdgAnwJ4QSJsvC4rFcLNRXN0e9qzD0safESgxwBALiqgzNf9Y4lz/88oLT3CSbAtxBOkBj/eVbRH/Pj3c34+VlF84/o4AUAGL7dE1/1jq3gwwmv7oGnta6t6MsbKgAkDacFEnBDvz6v6qenkwkJi7MV2W6ovdOb9agHAOCfto48FUzpwe2i1rq2wm+XogC5x84JJsuQXs5PLphIUqVoaHG2ots1fhwAAMMXRvEsFD9gywT4Hp7GMDHFQjz1/YfHkz9WdXeqoMWZqooFOngBAIZn5n5Jv89VtfC4rN+e04gF+B7CCSaiWo6nvj9/kJyBiE/vFfULBfIAgCF5ei8OJuVivPD149MyjViA7yCcYOxu1Uy9Wqjp6d3klTwtPC7rp6fcOAAAN/PkblG/z1X/1Rb/52cV/fSM+wzwNYQTjNW96YJeLdT08HZyJ7T/MlvRbIJ2dAAA6fL4ThxMauUvHxX+dbaihSeTP9IMJBHhBGPz6E5Rr17UdHcqucFEkgxDWpyp6MGtZL9OAEDyPLwdB5Opyrcfsf6Yq2qOVvbAvxBOMBbP7pf0aqGm6e9crJNiqmJqcfb7NxcAAD56cLuo3+ermq5e7t7xcr7KTj3wDzx5YeTmHsbB5J/nbpPuwa2CFmcqGsOwegBAyt2/VdDvcxXdvmQwkSTTkP6Yr+rJveTVYAKTQjjBSL14UtZ/F2oqpPSTNvugpMVZWj8CAL7u7nRBv89Vdad29ePApYKhl/M1PbpDQAEkwglG6OeZin6fS/+D/U9Py1pIwCwWAEDy3JmKg8lN6imrJUN/zFd1n1pHgHCC0fj1eVWLM9lplbg4W9FTtt0BAJ+4XTP1+1xV96dvHiqmK6Zeztd0J+FNY4BRI5xgqAxDevlDVT89zdZOQ6lgaHHmZitjAIDsuFWNg8kwOzverpl6eYWCeiCL+PRjaEpFQ68Wavoho60Rb9dMLc5WVE5ZYT8AYLimKqZ+m6vq4e3h76jfmy7o5XxV1TKPaMgnPvkYilo5nvqe9ZaIj+8U9ctM+utoAADXUyvHOyaPR1jA/vB2US/nqyoVWQxD/hBOcGO3a6Zevajpyd181GTMPyrp5wzV0wAALqdaMvT7XHUs97snd+OAYvKkhpzhI48buX+roFcLtdxNU1+cqWjuYbZ3iQAAfysXDf02Vx1rc5SZ+yW9nK+N7esBSUA4wbU9ulPUq4X8dhZZnK3Slx4AcqBUiHdMZu6Pf1Fq7mFJf8xznBj5QTjBtTy7X9KrFzVNVfL7EaqWDC3OVHSLrioAkFnFD8FkkjWVC4/L+vU5AQX5wFMVrmzuYUmvFmqqUKine9MFLc5WVSzwXgBA1pim9NtcVc8TcIz3p6dl6h2RC4QTXMmLJ2X9d6GmAp+cvzy7V8zUwEkAQDy36/e5quYTEEw+Wpyp6Ken3G+QbTxi4tJ+nqno9zm2lb/kxZOyfszY4EkAyLPf56qJnNv16/OKfnicvNcFDAvhBJfy2/MquwPfsTgzmWJJAMBw/TZX1UKCA8DL+SodI5FZhBN8k2lK//dDjV2BSyiY0uJsRfdz1lYZALLk1+dV/fgk+fe8P+ZrLIghkwgn+Kpy0dCrhZrmH3Hxu6zpiqnFmYqqZX60ACBtfpmt6KeULMYVTOmP+fEMhATGiScofNFUxdSrBVZlruPh7aJ+ma1INPACgNT4eaai/zxL1/HlctHQH/M1PbxNQEF2EE7wL7drBf13oabHrMZc2/MHJf1CjQ4ApMJ/nlVSW1dZKxt6OV/VvWmOFCMbCCf4zP1bBb16UdMD6iZu7D/P6KgCAEn309NKvNudYtNVUy/nq7pd496N9COc4C+P7xb1aqGmOzU+FsOyOFPhPDAAJNSLJ2X9+jzdweSjO1MFvZyvaqrCPRzpxicYkqSZ+/HUdy5qw1UuGlqcrejOFKtZAJAkC4/LmZvddf9WHFCqJYoekV48iULzj8p69aKmcpGL2SjcqRW0OFPh/QWAhPghg8Hko0d3ivpjvqZSgXsO0olwknM/Pi3r/36oyuQaNlJP7hZTW2wJAFky96is355XZWT4vvf0XlF//FCVyVMeUoiPbY4tzlT02/Nsrhwl0Q+Py6lrUwkAWfL8YUm/P6+okIOnn9n7Jf0xV5v0ywCuLAc/nviS3+aq+pmV/LFbnKno+QNmxwDAuM0+KOn3uaqKOTruNP+olNnja8iu/w+akIXUvkwojwAAAABJRU5ErkJggg==;" vertex="1" parent="1">
          <mxGeometry x="-1040" y="130" width="807" height="481" as="geometry" />
        </mxCell>
        <mxCell id="BpbORTAEeLpkDUlTC-BJ-10" value="" style="group" vertex="1" connectable="0" parent="1">
          <mxGeometry x="-820" y="200" width="410" height="320" as="geometry" />
        </mxCell>
        <mxCell id="BpbORTAEeLpkDUlTC-BJ-2" value="" style="curved=1;endArrow=classic;html=1;rounded=0;strokeWidth=6;" edge="1" parent="BpbORTAEeLpkDUlTC-BJ-10" source="BpbORTAEeLpkDUlTC-BJ-8">
          <mxGeometry width="50" height="50" relative="1" as="geometry">
            <mxPoint x="190" y="160" as="sourcePoint" />
            <mxPoint x="370" y="20" as="targetPoint" />
            <Array as="points">
              <mxPoint x="320" y="140" />
              <mxPoint x="200" y="30" />
            </Array>
          </mxGeometry>
        </mxCell>
        <mxCell id="BpbORTAEeLpkDUlTC-BJ-4" value="" style="curved=1;endArrow=classic;html=1;rounded=0;strokeWidth=6;" edge="1" parent="BpbORTAEeLpkDUlTC-BJ-10" source="BpbORTAEeLpkDUlTC-BJ-8">
          <mxGeometry width="50" height="50" relative="1" as="geometry">
            <mxPoint x="195" y="160" as="sourcePoint" />
            <mxPoint x="-60" y="230" as="targetPoint" />
            <Array as="points">
              <mxPoint x="200" />
              <mxPoint y="10" />
            </Array>
          </mxGeometry>
        </mxCell>
        <mxCell id="BpbORTAEeLpkDUlTC-BJ-5" value="" style="endArrow=classic;html=1;rounded=0;strokeWidth=5;" edge="1" parent="BpbORTAEeLpkDUlTC-BJ-10" source="BpbORTAEeLpkDUlTC-BJ-8">
          <mxGeometry width="50" height="50" relative="1" as="geometry">
            <mxPoint x="190" y="160" as="sourcePoint" />
            <mxPoint x="410" y="160" as="targetPoint" />
          </mxGeometry>
        </mxCell>
        <mxCell id="BpbORTAEeLpkDUlTC-BJ-6" value="" style="endArrow=classic;html=1;rounded=0;strokeWidth=5;" edge="1" parent="BpbORTAEeLpkDUlTC-BJ-10" source="BpbORTAEeLpkDUlTC-BJ-8">
          <mxGeometry width="50" height="50" relative="1" as="geometry">
            <mxPoint x="190" y="160" as="sourcePoint" />
            <mxPoint x="340" y="380" as="targetPoint" />
            <Array as="points">
              <mxPoint x="340" y="240" />
            </Array>
          </mxGeometry>
        </mxCell>
        <mxCell id="BpbORTAEeLpkDUlTC-BJ-7" value="" style="curved=1;endArrow=classic;html=1;rounded=0;strokeWidth=6;" edge="1" parent="BpbORTAEeLpkDUlTC-BJ-10">
          <mxGeometry width="50" height="50" relative="1" as="geometry">
            <mxPoint x="180" y="160" as="sourcePoint" />
            <mxPoint x="110" y="240" as="targetPoint" />
            <Array as="points">
              <mxPoint x="190" y="240" />
              <mxPoint x="160" y="300" />
              <mxPoint x="110" y="320" />
              <mxPoint x="60" y="290" />
              <mxPoint x="30" y="240" />
              <mxPoint x="50" y="180" />
              <mxPoint x="110" y="160" />
              <mxPoint x="150" y="200" />
              <mxPoint x="150" y="240" />
            </Array>
          </mxGeometry>
        </mxCell>
        <mxCell id="BpbORTAEeLpkDUlTC-BJ-8" value="" style="shape=waypoint;sketch=0;fillStyle=solid;size=6;pointerEvents=1;points=[];fillColor=none;resizable=0;rotatable=0;perimeter=centerPerimeter;snapToPoint=1;strokeWidth=0;" vertex="1" parent="BpbORTAEeLpkDUlTC-BJ-10">
          <mxGeometry x="170" y="150" width="20" height="20" as="geometry" />
        </mxCell>
        <mxCell id="BpbORTAEeLpkDUlTC-BJ-9" value="" style="endArrow=classic;html=1;rounded=0;strokeWidth=5;" edge="1" parent="BpbORTAEeLpkDUlTC-BJ-10">
          <mxGeometry width="50" height="50" relative="1" as="geometry">
            <mxPoint x="180" y="160" as="sourcePoint" />
            <mxPoint x="70" y="70" as="targetPoint" />
          </mxGeometry>
        </mxCell>
        <mxCell id="BpbORTAEeLpkDUlTC-BJ-11" value="&lt;font style=&quot;font-size: 31px;&quot;&gt;u&lt;sub&gt;1&lt;/sub&gt;(k)&lt;/font&gt;" style="text;html=1;strokeColor=none;fillColor=none;align=center;verticalAlign=middle;whiteSpace=wrap;rounded=0;" vertex="1" parent="1">
          <mxGeometry x="-440" y="200" width="60" height="30" as="geometry" />
        </mxCell>
        <mxCell id="BpbORTAEeLpkDUlTC-BJ-13" value="&lt;font style=&quot;font-size: 31px;&quot;&gt;u&lt;/font&gt;&lt;font style=&quot;font-size: 25.8333px;&quot;&gt;&lt;sub&gt;2&lt;/sub&gt;&lt;/font&gt;&lt;font style=&quot;&quot;&gt;&lt;span style=&quot;font-size: 31px;&quot;&gt;(k)&lt;/span&gt;&lt;/font&gt;" style="text;html=1;strokeColor=none;fillColor=none;align=center;verticalAlign=middle;whiteSpace=wrap;rounded=0;" vertex="1" parent="1">
          <mxGeometry x="-400" y="345" width="60" height="30" as="geometry" />
        </mxCell>
        <mxCell id="BpbORTAEeLpkDUlTC-BJ-14" value="&lt;font style=&quot;font-size: 31px;&quot;&gt;u&lt;sub&gt;3&lt;/sub&gt;(k)&lt;/font&gt;" style="text;html=1;strokeColor=none;fillColor=none;align=center;verticalAlign=middle;whiteSpace=wrap;rounded=0;" vertex="1" parent="1">
          <mxGeometry x="-460" y="490" width="60" height="30" as="geometry" />
        </mxCell>
        <mxCell id="BpbORTAEeLpkDUlTC-BJ-15" value="&lt;font style=&quot;font-size: 31px;&quot;&gt;u&lt;sub&gt;4&lt;/sub&gt;(k)&lt;/font&gt;" style="text;html=1;strokeColor=none;fillColor=none;align=center;verticalAlign=middle;whiteSpace=wrap;rounded=0;" vertex="1" parent="1">
          <mxGeometry x="-751" y="390" width="60" height="30" as="geometry" />
        </mxCell>
        <mxCell id="BpbORTAEeLpkDUlTC-BJ-16" value="&lt;font style=&quot;font-size: 31px;&quot;&gt;u&lt;sub&gt;5&lt;/sub&gt;(k)&lt;/font&gt;" style="text;html=1;strokeColor=none;fillColor=none;align=center;verticalAlign=middle;whiteSpace=wrap;rounded=0;" vertex="1" parent="1">
          <mxGeometry x="-770" y="230" width="60" height="30" as="geometry" />
        </mxCell>
        <mxCell id="BpbORTAEeLpkDUlTC-BJ-17" value="&lt;font style=&quot;font-size: 31px;&quot;&gt;u&lt;/font&gt;&lt;font style=&quot;font-size: 25.8333px;&quot;&gt;&lt;sub&gt;6&lt;/sub&gt;&lt;/font&gt;&lt;font style=&quot;&quot;&gt;&lt;span style=&quot;font-size: 31px;&quot;&gt;(k)&lt;/span&gt;&lt;/font&gt;" style="text;html=1;strokeColor=none;fillColor=none;align=center;verticalAlign=middle;whiteSpace=wrap;rounded=0;" vertex="1" parent="1">
          <mxGeometry x="-930" y="345" width="60" height="30" as="geometry" />
        </mxCell>
      </root>
    </mxGraphModel>
  </diagram>
</mxfile>
